<svg id="visual" viewBox="0 0 960 540" width="960" height="540" xmlns="http://www.w3.org/2000/svg" xmlns:xlink="http://www.w3.org/1999/xlink" version="1.1"><rect x="0" y="0" width="960" height="540" fill="#001122"></rect><path d="M0 57L40 89C80 121 160 185 240 200C320 215 400 181 480 166.5C560 152 640 157 720 184.5C800 212 880 262 920 287L960 312L960 0L920 0C880 0 800 0 720 0C640 0 560 0 480 0C400 0 320 0 240 0C160 0 80 0 40 0L0 0Z" fill="#F7770F" stroke-linecap="round" stroke-linejoin="miter"></path></svg>